<svg width="44" height="44" xmlns="http://www.w3.org/2000/svg" fill="none">

 <mask maskUnits="userSpaceOnUse" y="6" x="12" height="8" width="8" id="a">
  <path id="svg_1" d="m14.85,12.566l4.734,-4.52a0.805,0.805 0 0 0 0.018,-1.15a0.827,0.827 0 0 0 -1.163,-0.018l-5.739,5.482a0.805,0.805 0 0 0 -0.019,1.15a0.827,0.827 0 0 0 1.163,0.017" fill="#fff"/>
 </mask>
 <mask maskUnits="userSpaceOnUse" y="12" x="30" height="8" width="8" id="b">
  <path id="svg_2" d="m31.293,14.889l4.572,4.68a0.827,0.827 0 0 0 1.163,0.017a0.805,0.805 0 0 0 0.018,-1.149l-5.546,-5.676a0.827,0.827 0 0 0 -1.162,-0.018a0.805,0.805 0 0 0 -0.018,1.15" fill="#fff"/>
 </mask>
 <mask maskUnits="userSpaceOnUse" y="0" x="23" height="21" width="10" id="c">
  <path id="svg_3" d="m30.756,2.145a4.834,4.834 0 0 1 -0.12,6.89l-4.059,3.832c-0.548,0.524 -0.954,1.202 -1.06,1.945c-0.15,1.02 0.178,2.01 0.887,2.735c0.913,0.931 2.302,1.208 3.494,0.784l0.048,-0.018c0.298,-0.112 0.72,-0.395 1.168,0.183c0.382,0.79 -0.054,1.15 -0.608,1.356l-0.024,0.011c-1.788,0.649 -3.88,0.236 -5.264,-1.178a4.835,4.835 0 0 1 0.12,-6.89l4.06,-3.832c0.548,-0.525 0.953,-1.202 1.06,-1.945a3.207,3.207 0 0 0 -0.888,-2.735c-0.912,-0.931 -2.301,-1.208 -3.494,-0.784l-0.047,0.018c-0.298,0.112 -0.722,0.395 -1.169,-0.183c-0.381,-0.79 0.054,-1.15 0.608,-1.356l0.024,-0.011c1.789,-0.649 3.881,-0.236 5.264,1.178z" fill="#fff"/>
 </mask>
 <mask maskUnits="userSpaceOnUse" y="0" x="12" height="9" width="14" id="d">
  <path id="svg_4" d="m14.105,7.468c0.525,-0.442 0.185,-0.725 0.078,-1.02c-0.454,-1.208 -0.203,-2.6 0.745,-3.525c0.65,-0.63 1.49,-0.937 2.319,-0.925a3.221,3.221 0 0 1 2.29,1.002l4.757,4.98a0.807,0.807 0 0 0 1.15,0.018a0.831,0.831 0 0 0 0.018,-1.167l-4.745,-4.963l-0.012,-0.011c-1.693,-1.645 -4.328,-1.998 -6.266,-0.655a4.898,4.898 0 0 0 -1.824,2.352a5.007,5.007 0 0 0 -0.006,3.436c0.202,0.566 0.78,1.08 1.49,0.472l0.006,0.006z" fill="#fff"/>
 </mask>
 <mask maskUnits="userSpaceOnUse" y="29" x="23" height="8" width="9" id="e">
  <path id="svg_5" d="m28.759,30.997l-4.734,4.521a0.805,0.805 0 0 0 -0.017,1.15a0.827,0.827 0 0 0 1.162,0.017l5.741,-5.481a0.805,0.805 0 0 0 0.018,-1.15a0.827,0.827 0 0 0 -1.162,-0.017" fill="#fff"/>
 </mask>
 <mask maskUnits="userSpaceOnUse" y="23" x="23" height="9" width="21" id="f">
  <path id="svg_6" d="m41.875,30.467a4.968,4.968 0 0 1 -6.97,-0.118l-3.874,-4.014c-0.53,-0.542 -1.216,-0.943 -1.968,-1.049a3.29,3.29 0 0 0 -2.766,0.878a3.255,3.255 0 0 0 -0.793,3.454l0.018,0.047c0.113,0.295 0.4,0.713 -0.185,1.156c-0.799,0.377 -1.162,-0.053 -1.37,-0.602l-0.013,-0.023a4.873,4.873 0 0 1 3.047,-6.319a4.968,4.968 0 0 1 5.115,1.232l3.875,4.014c0.53,0.542 1.216,0.943 1.967,1.05a3.291,3.291 0 0 0 2.766,-0.879a3.255,3.255 0 0 0 0.793,-3.454l-0.018,-0.047c-0.113,-0.295 -0.4,-0.713 0.185,-1.155c0.799,-0.378 1.163,0.053 1.371,0.6l0.012,0.024a4.873,4.873 0 0 1 -1.192,5.205z" fill="#fff"/>
 </mask>
 <mask maskUnits="userSpaceOnUse" y="12" x="35" height="14" width="9" id="g">
  <path id="svg_7" d="m36.402,13.91c0.334,0.46 0.829,0.277 1.127,0.171c1.222,-0.448 2.629,-0.2 3.565,0.737c0.638,0.642 0.948,1.473 0.936,2.293a3.152,3.152 0 0 1 -1.014,2.263l-5.037,4.704a0.786,0.786 0 0 0 -0.018,1.137a0.855,0.855 0 0 0 1.18,0.018l5.02,-4.692l0.012,-0.006c1.663,-1.674 2.021,-4.279 0.662,-6.194a4.94,4.94 0 0 0 -2.379,-1.804a5.174,5.174 0 0 0 -3.476,-0.006c-0.572,0.2 -1.15,0.59 -0.572,1.38l-0.006,0l0,-0.001z" fill="#fff"/>
 </mask>
 <mask maskUnits="userSpaceOnUse" y="23" x="6" height="9" width="8" id="h">
  <path id="svg_8" d="m12.418,28.74l-4.572,-4.68a0.827,0.827 0 0 0 -1.163,-0.018a0.805,0.805 0 0 0 -0.018,1.15l5.545,5.676a0.827,0.827 0 0 0 1.162,0.017a0.805,0.805 0 0 0 0.018,-1.149" fill="#fff"/>
 </mask>
 <mask maskUnits="userSpaceOnUse" y="23" x="11" height="20" width="9" id="i">
  <path id="svg_9" d="m13.068,41.483a4.835,4.835 0 0 1 0.12,-6.89l4.06,-3.831c0.548,-0.525 0.953,-1.203 1.06,-1.945a3.207,3.207 0 0 0 -0.888,-2.735c-0.912,-0.932 -2.301,-1.209 -3.493,-0.784l-0.048,0.018c-0.298,0.111 -0.721,0.394 -1.169,-0.183c-0.381,-0.79 0.054,-1.15 0.608,-1.356l0.024,-0.012c1.789,-0.648 3.881,-0.236 5.264,1.18a4.834,4.834 0 0 1 -0.12,6.89l-4.059,3.83c-0.548,0.525 -0.954,1.203 -1.06,1.946c-0.15,1.02 0.178,2.01 0.887,2.735c0.913,0.93 2.302,1.208 3.494,0.784l0.048,-0.018c0.298,-0.112 0.721,-0.395 1.168,0.182c0.382,0.79 -0.053,1.15 -0.608,1.356l-0.024,0.012c-1.788,0.648 -3.88,0.236 -5.264,-1.179z" fill="#fff"/>
 </mask>
 <mask maskUnits="userSpaceOnUse" y="35" x="17" height="9" width="15" id="j">
  <path id="svg_10" d="m29.588,35.954c-0.466,0.33 -0.28,0.82 -0.173,1.114c0.453,1.209 0.202,2.6 -0.745,3.525c-0.65,0.63 -1.491,0.937 -2.32,0.925a3.221,3.221 0 0 1 -2.289,-1.002l-4.757,-4.98a0.807,0.807 0 0 0 -1.15,-0.018a0.831,0.831 0 0 0 -0.019,1.167l4.746,4.963l0.012,0.012c1.693,1.645 4.328,1.998 6.265,0.654a4.898,4.898 0 0 0 1.825,-2.352a5.007,5.007 0 0 0 0.005,-3.436c-0.202,-0.566 -0.596,-1.137 -1.395,-0.566l-0.005,-0.006z" fill="#fff"/>
 </mask>
 <mask maskUnits="userSpaceOnUse" y="11" x="0" height="9" width="21" id="k">
  <path id="svg_11" d="m1.789,13.085a4.968,4.968 0 0 1 6.97,0.118l3.874,4.014c0.53,0.542 1.216,0.943 1.967,1.049a3.29,3.29 0 0 0 2.766,-0.878a3.255,3.255 0 0 0 0.793,-3.454l-0.018,-0.047c-0.113,-0.295 -0.399,-0.713 0.185,-1.156c0.8,-0.377 1.163,0.053 1.371,0.602l0.012,0.023a4.873,4.873 0 0 1 -3.046,6.319a4.968,4.968 0 0 1 -5.115,-1.232l-3.875,-4.014c-0.53,-0.542 -1.216,-0.943 -1.968,-1.05a3.291,3.291 0 0 0 -2.766,0.879a3.256,3.256 0 0 0 -0.793,3.454l0.018,0.047c0.113,0.295 0.4,0.713 -0.185,1.155c-0.799,0.378 -1.162,-0.053 -1.37,-0.6l-0.013,-0.024a4.873,4.873 0 0 1 1.193,-5.205z" fill="#fff"/>
 </mask>
 <mask maskUnits="userSpaceOnUse" y="17" x="0" height="15" width="8" id="l">
  <path id="svg_12" d="m7.267,29.418c-0.334,-0.46 -0.828,-0.277 -1.127,-0.171c-1.222,0.448 -2.629,0.2 -3.565,-0.737a3.182,3.182 0 0 1 -0.936,-2.293a3.152,3.152 0 0 1 1.014,-2.263l5.037,-4.704a0.786,0.786 0 0 0 0.018,-1.137a0.855,0.855 0 0 0 -1.18,-0.018l-5.02,4.692l-0.012,0.006c-1.663,1.674 -2.02,4.279 -0.661,6.195a4.94,4.94 0 0 0 2.378,1.803c1.127,0.407 2.367,0.4 3.476,0.006c0.572,-0.2 1.15,-0.59 0.572,-1.38l0.006,0l0,0.001z" fill="#fff"/>
 </mask>
 <g>
  <title>Layer 1</title>
  <path id="svg_13" clip-rule="evenodd" d="m14.85,12.566l4.734,-4.52a0.805,0.805 0 0 0 0.018,-1.15a0.827,0.827 0 0 0 -1.163,-0.018l-5.739,5.482a0.805,0.805 0 0 0 -0.019,1.15a0.827,0.827 0 0 0 1.163,0.017" fill-rule="evenodd" fill="#206818"/>
  <g id="svg_14" mask="url(#a)">
   <path id="svg_15" d="m12.254,6.307l-0.134,7.632l7.91,0.137l0.134,-7.632l-7.91,-0.137z" fill="#206818"/>
  </g>
  <path id="svg_16" clip-rule="evenodd" d="m31.293,14.889l4.572,4.68a0.827,0.827 0 0 0 1.163,0.017a0.805,0.805 0 0 0 0.018,-1.149l-5.546,-5.676a0.827,0.827 0 0 0 -1.162,-0.018a0.805,0.805 0 0 0 -0.018,1.15" fill-rule="evenodd" fill="#206818"/>
  <g id="svg_17" mask="url(#b)">
   <path id="svg_18" d="m29.897,12.192l-0.138,7.82l7.72,0.134l0.138,-7.82l-7.72,-0.134z" fill="#206818"/>
  </g>
  <path id="svg_19" clip-rule="evenodd" d="m30.756,2.145a4.834,4.834 0 0 1 -0.12,6.89l-4.059,3.832c-0.548,0.524 -0.954,1.202 -1.06,1.945c-0.15,1.02 0.178,2.01 0.887,2.735c0.913,0.931 2.302,1.208 3.494,0.784l0.048,-0.018c0.298,-0.112 0.72,-0.395 1.168,0.183c0.382,0.79 -0.054,1.15 -0.608,1.356l-0.024,0.011c-1.788,0.649 -3.88,0.236 -5.264,-1.178a4.835,4.835 0 0 1 0.12,-6.89l4.06,-3.832c0.548,-0.525 0.953,-1.202 1.06,-1.945a3.207,3.207 0 0 0 -0.888,-2.735c-0.912,-0.931 -2.301,-1.208 -3.494,-0.784l-0.047,0.018c-0.298,0.112 -0.722,0.395 -1.169,-0.183c-0.381,-0.79 0.054,-1.15 0.608,-1.356l0.024,-0.011c1.789,-0.649 3.881,-0.236 5.264,1.178z" fill-rule="evenodd" fill="#206818"/>
  <g id="svg_20" mask="url(#c)">
   <path id="svg_21" d="m23.372,0.081l-0.363,20.52l9.58,0.166l0.361,-20.52l-9.578,-0.167l0,0.001z" fill="#206818"/>
  </g>
  <path id="svg_22" clip-rule="evenodd" d="m14.105,7.468c0.525,-0.442 0.185,-0.725 0.078,-1.02c-0.454,-1.208 -0.203,-2.6 0.745,-3.525c0.65,-0.63 1.49,-0.937 2.319,-0.925a3.221,3.221 0 0 1 2.29,1.002l4.757,4.98a0.807,0.807 0 0 0 1.15,0.018a0.831,0.831 0 0 0 0.018,-1.167l-4.745,-4.963l-0.012,-0.011c-1.693,-1.645 -4.328,-1.998 -6.266,-0.655a4.898,4.898 0 0 0 -1.824,2.352a5.007,5.007 0 0 0 -0.006,3.436c0.202,0.566 0.78,1.08 1.49,0.472l0.006,0.006z" fill-rule="evenodd" fill="#206818"/>
  <g id="svg_23" mask="url(#d)">
   <path id="svg_24" d="m12.098,-0.006l-0.15,8.428l13.937,0.24l0.149,-8.427l-13.936,-0.24l0,-0.001z" fill="#206818"/>
  </g>
  <path id="svg_25" clip-rule="evenodd" d="m28.759,30.997l-4.734,4.521a0.805,0.805 0 0 0 -0.017,1.15a0.827,0.827 0 0 0 1.162,0.017l5.741,-5.481a0.805,0.805 0 0 0 0.018,-1.15a0.827,0.827 0 0 0 -1.162,-0.017" fill-rule="evenodd" fill="#206818"/>
  <g id="svg_26" mask="url(#e)">
   <path id="svg_27" d="m23.573,29.483l-0.135,7.631l7.91,0.137l0.135,-7.632l-7.91,-0.136z" fill="#206818"/>
  </g>
  <path id="svg_28" clip-rule="evenodd" d="m41.875,30.467a4.968,4.968 0 0 1 -6.97,-0.118l-3.874,-4.014c-0.53,-0.542 -1.216,-0.943 -1.968,-1.049a3.29,3.29 0 0 0 -2.766,0.878a3.255,3.255 0 0 0 -0.793,3.454l0.018,0.047c0.113,0.295 0.4,0.713 -0.185,1.156c-0.799,0.377 -1.162,-0.053 -1.37,-0.602l-0.013,-0.023a4.873,4.873 0 0 1 3.047,-6.319a4.968,4.968 0 0 1 5.115,1.232l3.875,4.014c0.53,0.542 1.216,0.943 1.967,1.05a3.291,3.291 0 0 0 2.766,-0.879a3.255,3.255 0 0 0 0.793,-3.454l-0.018,-0.047c-0.113,-0.295 -0.4,-0.713 0.185,-1.155c0.799,-0.378 1.163,0.053 1.371,0.6l0.012,0.024a4.873,4.873 0 0 1 -1.192,5.205z" fill-rule="evenodd" fill="#206818"/>
  <g id="svg_29" mask="url(#f)">
   <path id="svg_30" d="m23.208,22.814l-0.167,9.47l20.785,0.36l0.167,-9.471l-20.785,-0.359z" fill="#206818"/>
  </g>
  <path id="svg_31" clip-rule="evenodd" d="m36.402,13.91c0.334,0.46 0.829,0.277 1.127,0.171c1.222,-0.448 2.629,-0.2 3.565,0.737c0.638,0.642 0.948,1.473 0.936,2.293a3.152,3.152 0 0 1 -1.014,2.263l-5.037,4.704a0.786,0.786 0 0 0 -0.018,1.137a0.855,0.855 0 0 0 1.18,0.018l5.02,-4.692l0.012,-0.006c1.663,-1.674 2.021,-4.279 0.662,-6.194a4.94,4.94 0 0 0 -2.379,-1.804a5.174,5.174 0 0 0 -3.476,-0.006c-0.572,0.2 -1.15,0.59 -0.572,1.38l-0.006,0l0,-0.001z" fill-rule="evenodd" fill="#206818"/>
  <g id="svg_32" mask="url(#g)">
   <path id="svg_33" d="m35.522,11.873l-0.244,13.779l8.584,0.148l0.243,-13.779l-8.583,-0.148z" fill="#206818"/>
  </g>
  <path id="svg_34" clip-rule="evenodd" d="m12.418,28.74l-4.572,-4.68a0.827,0.827 0 0 0 -1.163,-0.018a0.805,0.805 0 0 0 -0.018,1.15l5.545,5.676a0.827,0.827 0 0 0 1.162,0.017a0.805,0.805 0 0 0 0.018,-1.149" fill-rule="evenodd" fill="#206818"/>
  <g id="svg_35" mask="url(#h)">
   <path id="svg_36" d="m6.226,23.485l-0.138,7.82l7.72,0.133l0.138,-7.82l-7.72,-0.133z" fill="#206818"/>
  </g>
  <path id="svg_37" clip-rule="evenodd" d="m13.068,41.483a4.835,4.835 0 0 1 0.12,-6.89l4.06,-3.831c0.548,-0.525 0.953,-1.203 1.06,-1.945a3.207,3.207 0 0 0 -0.888,-2.735c-0.912,-0.932 -2.301,-1.209 -3.493,-0.784l-0.048,0.018c-0.298,0.111 -0.721,0.394 -1.169,-0.183c-0.381,-0.79 0.054,-1.15 0.608,-1.356l0.024,-0.012c1.789,-0.648 3.881,-0.236 5.264,1.18a4.834,4.834 0 0 1 -0.12,6.89l-4.059,3.83c-0.548,0.525 -0.954,1.203 -1.06,1.946c-0.15,1.02 0.178,2.01 0.887,2.735c0.913,0.93 2.302,1.208 3.494,0.784l0.048,-0.018c0.298,-0.112 0.721,-0.395 1.168,0.182c0.382,0.79 -0.053,1.15 -0.608,1.356l-0.024,0.012c-1.788,0.648 -3.88,0.236 -5.264,-1.179z" fill-rule="evenodd" fill="#206818"/>
  <g id="svg_38" mask="url(#i)">
   <path id="svg_39" d="m11.233,22.864l-0.363,20.55l9.58,0.165l0.362,-20.55l-9.58,-0.165l0.001,0z" fill="#206818"/>
  </g>
  <path id="svg_40" clip-rule="evenodd" d="m29.588,35.954c-0.466,0.33 -0.28,0.82 -0.173,1.114c0.453,1.209 0.202,2.6 -0.745,3.525c-0.65,0.63 -1.491,0.937 -2.32,0.925a3.221,3.221 0 0 1 -2.289,-1.002l-4.757,-4.98a0.807,0.807 0 0 0 -1.15,-0.018a0.831,0.831 0 0 0 -0.019,1.167l4.746,4.963l0.012,0.012c1.693,1.645 4.328,1.998 6.265,0.654a4.898,4.898 0 0 0 1.825,-2.352a5.007,5.007 0 0 0 0.005,-3.436c-0.202,-0.566 -0.596,-1.137 -1.395,-0.566l-0.005,-0.006z" fill-rule="evenodd" fill="#206818"/>
  <g id="svg_41" mask="url(#j)">
   <path id="svg_42" d="m17.715,34.84l-0.157,8.917l13.948,0.241l0.157,-8.916l-13.948,-0.241l0,-0.001z" fill="#206818"/>
  </g>
  <path id="svg_43" clip-rule="evenodd" d="m1.789,13.085a4.968,4.968 0 0 1 6.97,0.118l3.874,4.014c0.53,0.542 1.216,0.943 1.967,1.049a3.29,3.29 0 0 0 2.766,-0.878a3.255,3.255 0 0 0 0.793,-3.454l-0.018,-0.047c-0.113,-0.295 -0.399,-0.713 0.185,-1.156c0.8,-0.377 1.163,0.053 1.371,0.602l0.012,0.023a4.873,4.873 0 0 1 -3.046,6.319a4.968,4.968 0 0 1 -5.115,-1.232l-3.875,-4.014c-0.53,-0.542 -1.216,-0.943 -1.968,-1.05a3.291,3.291 0 0 0 -2.766,0.879a3.256,3.256 0 0 0 -0.793,3.454l0.018,0.047c0.113,0.295 0.4,0.713 -0.185,1.155c-0.799,0.378 -1.162,-0.053 -1.37,-0.6l-0.013,-0.024a4.873,4.873 0 0 1 1.193,-5.205z" fill-rule="evenodd" fill="#206818"/>
  <g id="svg_44" mask="url(#k)">
   <path id="svg_45" d="m-0.133,10.915l-0.167,9.47l20.75,0.359l0.167,-9.47l-20.75,-0.359z" fill="#206818"/>
  </g>
  <path id="svg_46" clip-rule="evenodd" d="m7.267,29.418c-0.334,-0.46 -0.828,-0.277 -1.127,-0.171c-1.222,0.448 -2.629,0.2 -3.565,-0.737a3.182,3.182 0 0 1 -0.936,-2.293a3.152,3.152 0 0 1 1.014,-2.263l5.037,-4.704a0.786,0.786 0 0 0 0.018,-1.137a0.855,0.855 0 0 0 -1.18,-0.018l-5.02,4.692l-0.012,0.006c-1.663,1.674 -2.02,4.279 -0.661,6.195a4.94,4.94 0 0 0 2.378,1.803c1.127,0.407 2.367,0.4 3.476,0.006c0.572,-0.2 1.15,-0.59 0.572,-1.38l0.006,0l0,0.001z" fill-rule="evenodd" fill="#206818"/>
  <g id="svg_47" mask="url(#l)">
   <path id="svg_48" d="m-0.133,17.531l-0.243,13.779l8.523,0.147l0.244,-13.779l-8.524,-0.147z" fill="#206818"/>
  </g>
 </g>
</svg>